HIERARCHY
ROOT Hips
{
	OFFSET 0.000000 88.474243 0.000000
	CHANNELS 6 Xposition Yposition Zposition Zrotation Yrotation Xrotation 
	JOINT Hips_Spine
	{
		OFFSET 0.000000 0.000000 0.000000
		CHANNELS 3 Zrotation Yrotation Xrotation
		JOINT Spine
		{
			OFFSET 0.005100 8.711998 -0.691000
			CHANNELS 3 Zrotation Yrotation Xrotation
			JOINT Spine1
			{
				OFFSET -0.009200 8.660301 -1.275000
				CHANNELS 3 Zrotation Yrotation Xrotation
				JOINT Spine2
				{
					OFFSET 0.006300 9.852501 -1.857000
					CHANNELS 3 Zrotation Yrotation Xrotation
					JOINT Spine2_Neck
					{
						OFFSET 0.000000 0.000000 0.000000
						CHANNELS 3 Zrotation Yrotation Xrotation
						JOINT Neck
						{
							OFFSET 0.016300 11.420799 -0.263300
							CHANNELS 3 Zrotation Yrotation Xrotation
							End Site #name: Head
							{
								OFFSET -0.019200 9.262405 2.362500
							}
						}
					}
					JOINT Spine2_LeftShoulder
					{
						OFFSET 0.000000 0.000000 0.000000
						CHANNELS 3 Zrotation Yrotation Xrotation
						JOINT LeftShoulder
						{
							OFFSET 5.616900 6.732201 -0.345700
							CHANNELS 3 Zrotation Yrotation Xrotation
							JOINT LeftArm
							{
								OFFSET 10.664888 -0.183372 -2.440700
								CHANNELS 3 Zrotation Yrotation Xrotation
								JOINT LeftForeArm
								{
									OFFSET 27.459126 0.000000 0.000000
									CHANNELS 3 Zrotation Yrotation Xrotation
									End Site #name: LeftHand
									{
										OFFSET 21.306858 0.000000 0.000000
									}
								}
							}
						}
					}
					JOINT Spine2_RightShoulder
					{
						OFFSET 0.000000 0.000000 0.000000
						CHANNELS 3 Zrotation Yrotation Xrotation
						JOINT RightShoulder
						{
							OFFSET -5.580300 6.737503 -0.344400
							CHANNELS 3 Zrotation Yrotation Xrotation
							JOINT RightArm
							{
								OFFSET -10.679335 -0.188484 -2.383900
								CHANNELS 3 Zrotation Yrotation Xrotation
								JOINT RightForeArm
								{
									OFFSET -27.503529 0.000000 0.000000
									CHANNELS 3 Zrotation Yrotation Xrotation
									End Site #name: RightHand
									{
										OFFSET -21.306808 0.000000 0.000000
									}
								}
							}
						}
					}
				}
			}
		}
	}
	JOINT Hips_LeftUpLeg
	{
		OFFSET 0.000000 0.000000 0.000000
		CHANNELS 3 Zrotation Yrotation Xrotation
		JOINT LeftUpLeg
		{
			OFFSET 6.857700 -6.739601 0.312100
			CHANNELS 3 Zrotation Yrotation Xrotation
			JOINT LeftLeg
			{
				OFFSET -0.367590 -34.731552 -4.572400
				CHANNELS 3 Zrotation Yrotation Xrotation
				End Site #name: LeftFoot
				{
					OFFSET 0.367590 -34.656704 -6.067400
				}
			}
		}
	}
	JOINT Hips_RightUpLeg
	{
		OFFSET 0.000000 0.000000 0.000000
		CHANNELS 3 Zrotation Yrotation Xrotation
		JOINT RightUpLeg
		{
			OFFSET -6.876100 -6.733299 0.301000
			CHANNELS 3 Zrotation Yrotation Xrotation
			JOINT RightLeg
			{
				OFFSET 0.347353 -34.795158 -4.515900
				CHANNELS 3 Zrotation Yrotation Xrotation
				End Site #name: RightFoot
				{
					OFFSET -0.347353 -34.589367 -6.070300
				}
			}
		}
	}
}
MOTION
Frames: 10
Frame Time: 0.041667
-2.627859 -0.135174 -2.017461 -0.572534 10.276167 -6.786978 0.000000 -0.000000 -0.000000 1.604539 -0.990803 1.593242 2.069689 -0.752048 2.590662 0.000000 0.000000 0.000000 1.664265 -0.823993 2.123519 1.354539 0.196858 0.988743 1.752004 -0.890322 2.387289 -18.488009 2.513534 0.300474 -59.225709 7.386945 14.015602 -0.341733 -20.838747 0.863905 1.511331 -0.899178 2.304463 20.994006 10.089264 3.805966 41.783814 33.802117 -10.550867 179.557671 38.420875 -179.746181 0.000000 -0.000000 -0.000000 0.979465 11.747916 -12.586417 4.254767 7.585831 20.829447 0.000000 -0.000000 0.000000 -0.069831 -13.933549 -8.293965 3.985199 8.599588 19.136195 
-2.783429 -0.147093 -2.072092 -0.702249 10.426044 -6.760011 0.000000 -0.000000 -0.000000 1.678670 -1.002976 1.682986 2.180528 -0.764963 2.631839 0.000000 0.000000 0.000000 1.765186 -0.825959 2.180366 1.351501 0.193923 1.077958 1.852882 -0.890858 2.462301 -18.482372 2.509368 0.290887 -59.329246 7.751033 13.768110 -0.339002 -21.005118 0.864342 1.630250 -0.910302 2.343778 21.000840 10.114383 3.809837 41.783888 33.833234 -10.545841 179.554443 38.315236 -179.748094 0.000000 -0.000000 -0.000000 1.264471 11.898593 -12.598799 4.249450 7.358747 20.678571 0.000000 -0.000000 0.000000 0.259942 -13.853067 -8.487243 3.938494 8.442600 19.292014 
-2.919423 -0.159430 -2.120176 -0.834342 10.588722 -6.739659 0.000000 -0.000000 -0.000000 1.764425 -1.005666 1.793773 2.283267 -0.774754 2.670854 0.000000 0.000000 0.000000 1.859668 -0.826295 2.234471 1.347248 0.189479 1.177629 1.947798 -0.889575 2.531574 -18.482883 2.503435 0.282200 -59.412873 8.076386 13.560633 -0.336571 -21.168068 0.865323 1.740201 -0.918883 2.381416 21.003368 10.141298 3.813668 41.763761 33.889539 -10.569159 179.552749 38.210334 -179.750210 0.000000 -0.000000 -0.000000 1.530059 12.043472 -12.650629 4.275269 7.158370 20.671850 0.000000 -0.000000 0.000000 0.562348 -13.777486 -8.673468 3.891763 8.287478 19.465656 
-3.033427 -0.171719 -2.161964 -0.959754 10.730337 -6.724599 0.000000 -0.000000 -0.000000 1.835074 -1.002184 1.895307 2.376317 -0.780886 2.706306 0.000000 0.000000 0.000000 1.943689 -0.824966 2.284942 1.346106 0.186150 1.277816 2.034291 -0.887489 2.595430 -18.485316 2.488920 0.275150 -59.456826 8.351555 13.377423 -0.334418 -21.296571 0.865861 1.838347 -0.924749 2.417893 21.011399 10.163488 3.817754 41.724951 33.967981 -10.610143 179.550844 38.092499 -179.752074 0.000000 -0.000000 -0.000000 1.785984 12.159981 -12.749501 4.359202 7.129464 20.775673 0.000000 -0.000000 0.000000 0.832575 -13.718669 -8.840346 3.839765 8.128058 19.636614 
-3.123185 -0.183783 -2.197739 -1.069693 10.845514 -6.717672 0.000000 -0.000000 -0.000000 1.893996 -0.994296 1.988106 2.452523 -0.782332 2.742275 0.000000 0.000000 0.000000 2.016530 -0.820274 2.334321 1.349834 0.181433 1.376019 2.110724 -0.883394 2.654383 -18.493623 2.463770 0.268598 -59.476508 8.580328 13.222878 -0.334125 -21.396824 0.865611 1.923269 -0.926316 2.452862 21.022816 10.189455 3.823997 41.672615 34.075333 -10.679716 179.548536 37.980876 -179.754123 0.000000 -0.000000 -0.000000 2.031992 12.241417 -12.857513 4.498920 7.287556 20.883098 0.000000 -0.000000 0.000000 1.060599 -13.671681 -8.983138 3.785059 7.964884 19.796586 
-3.185603 -0.195209 -2.227706 -1.155691 10.921722 -6.714652 0.000000 -0.000000 -0.000000 1.937086 -0.980850 2.077904 2.512282 -0.778738 2.776832 0.000000 0.000000 0.000000 2.077371 -0.813580 2.379764 1.357763 0.176590 1.474780 2.176183 -0.875641 2.710417 -18.504562 2.437272 0.263698 -59.469462 8.762128 13.101031 -0.333558 -21.457662 0.864568 1.996407 -0.925459 2.487834 21.036821 10.207039 3.829180 41.608771 34.183218 -10.739716 179.548338 37.886364 -179.755004 0.000000 -0.000000 -0.000000 2.251022 12.272366 -13.026523 4.710415 7.592863 21.070795 0.000000 -0.000000 0.000000 1.238047 -13.633187 -9.103705 3.729782 7.802735 19.948729 
-3.217184 -0.204956 -2.251781 -1.211364 10.962748 -6.713693 0.000000 -0.000000 -0.000000 1.968387 -0.961780 2.157018 2.560271 -0.773514 2.809244 0.000000 0.000000 0.000000 2.125702 -0.805041 2.419019 1.369230 0.172297 1.568726 2.229388 -0.867164 2.757151 -18.524135 2.423973 0.253965 -59.436605 8.903990 12.986317 -0.333317 -21.499654 0.863882 2.054993 -0.920500 2.519585 21.051145 10.224008 3.833909 41.551552 34.283480 -10.787455 179.547736 37.818448 -179.755150 0.000000 -0.000000 -0.000000 2.415722 12.280074 -13.179036 4.905112 7.935717 21.232324 0.000000 -0.000000 0.000000 1.358063 -13.605717 -9.206643 3.673857 7.641164 20.103362 
-3.215118 -0.212835 -2.270239 -1.231373 10.975797 -6.713428 0.000000 -0.000000 -0.000000 1.971585 -0.939985 2.216399 2.595466 -0.766004 2.834412 0.000000 0.000000 0.000000 2.159456 -0.795825 2.450561 1.384215 0.169469 1.653201 2.268803 -0.858011 2.797417 -18.548859 2.413299 0.244878 -59.395005 9.024999 12.891994 -0.333152 -21.501773 0.862304 2.096582 -0.911674 2.546579 21.065394 10.237847 3.837056 41.480833 34.378729 -10.832392 179.548684 37.771002 -179.754708 0.000000 -0.000000 -0.000000 2.511640 12.277588 -13.293768 5.062829 8.234993 21.361134 0.000000 -0.000000 0.000000 1.417812 -13.581918 -9.290245 3.550716 7.443061 20.252323 
-3.176853 -0.218576 -2.283455 -1.216360 10.961862 -6.709126 0.000000 -0.000000 -0.000000 1.958900 -0.916199 2.256079 2.616847 -0.759214 2.855219 0.000000 0.000000 0.000000 2.177781 -0.787019 2.471553 1.400784 0.167332 1.722879 2.294634 -0.848298 2.823373 -18.577529 2.408732 0.233405 -59.344467 9.115119 12.829257 -0.332442 -21.453576 0.859624 2.123317 -0.902965 2.564867 21.086605 10.247828 3.840835 41.414914 34.457880 -10.856139 179.550298 37.744635 -179.754215 0.000000 -0.000000 -0.000000 2.530116 12.261693 -13.357701 5.139641 8.446330 21.405102 0.000000 -0.000000 0.000000 1.416678 -13.563643 -9.347475 3.422593 7.241802 20.372886 
-3.103558 -0.222023 -2.291877 -1.169318 10.927171 -6.699442 0.000000 -0.000000 -0.000000 1.909367 -0.894450 2.288733 2.626980 -0.751496 2.865800 0.000000 0.000000 0.000000 2.182803 -0.781095 2.479806 1.420264 0.166227 1.774951 2.307805 -0.841427 2.836009 -18.614147 2.410591 0.221292 -59.287977 9.182510 12.769621 -0.332432 -21.364658 0.856820 2.133335 -0.894984 2.574273 21.113708 10.252045 3.844038 41.338896 34.543904 -10.892728 179.550791 37.729618 -179.756540 0.000000 -0.000000 -0.000000 2.469122 12.233025 -13.361869 5.061852 8.458954 21.377537 0.000000 -0.000000 0.000000 1.359297 -13.547178 -9.389143 3.297457 7.050231 20.479274 
